<?xml version="1.0" encoding="utf-8"?>
<!-- Generator: Adobe Illustrator 19.0.0, SVG Export Plug-In . SVG Version: 6.00 Build 0)  -->
<svg version="1.1"
	 id="svg2" xmlns:dc="http://purl.org/dc/elements/1.1/" xmlns:cc="http://creativecommons.org/ns#" xmlns:rdf="http://www.w3.org/1999/02/22-rdf-syntax-ns#" xmlns:svg="http://www.w3.org/2000/svg" xmlns:sodipodi="http://sodipodi.sourceforge.net/DTD/sodipodi-0.dtd" xmlns:inkscape="http://www.inkscape.org/namespaces/inkscape" inkscape:version="0.91 r13725" inkscape:export-ydpi="148.37344" inkscape:output_extension="org.inkscape.output.svg.inkscape" inkscape:export-xdpi="148.37344" sodipodi:version="0.32" inkscape:export-filename="C:\Users\SSI\Desktop\bitmap.png" sodipodi:docname="pitr-Sheep-icon.svg"
	 xmlns="http://www.w3.org/2000/svg" xmlns:xlink="http://www.w3.org/1999/xlink" x="0px" y="0px" viewBox="-241 339.4 127.6 114.6"
	 style="enable-background:new -241 339.4 127.6 114.6;" xml:space="preserve">
<style type="text/css">
	.st0{fill:#FFFFFF;stroke:#000000;stroke-width:6;stroke-linejoin:round;}
	.st1{fill:#FFFFFF;stroke:#000000;stroke-width:2.8804;}
	.st2{fill:#FFFFFF;stroke:#000000;stroke-width:2.871;}
	.st3{fill:#FFCCAA;stroke:#000000;stroke-width:2.6316;}
	.st4{fill:#FFFFFF;stroke:#000000;stroke-width:2.5229;stroke-linecap:round;stroke-linejoin:round;}
	.st5{fill:#FFFFFF;}
	.st6{stroke:#000000;stroke-width:0.9383;stroke-linecap:round;stroke-linejoin:round;}
	.st7{stroke:#000000;stroke-width:0.9988;stroke-linecap:round;stroke-linejoin:round;}
	.st8{fill:#5599FF;}
</style>
<sodipodi:namedview  fit-margin-left="0" fit-margin-top="0" showborder="true" gridtolerance="10000" pagecolor="#ffffff" objecttolerance="10000" guidetolerance="10000" bordercolor="#666666" showguides="true" showgrid="true" inkscape:cy="65.88075" inkscape:cx="29.853921" borderopacity="1.0" inkscape:zoom="4.2109376" id="base" fit-margin-bottom="0" fit-margin-right="0" inkscape:window-maximized="1" inkscape:window-height="1028" inkscape:document-units="px" inkscape:pageshadow="2" inkscape:pageopacity="0.0" inkscape:window-width="1680" inkscape:window-y="-8" inkscape:window-x="1672" inkscape:snap-global="false" inkscape:guide-bbox="true" inkscape:current-layer="layer2">
	
		<inkscape:grid  type="xygrid" originy="-11.923345" originx="-1.0555121" empspacing="4" enabled="true" visible="true" id="grid2403">
		</inkscape:grid>
	<sodipodi:guide  orientation="1,0" position="-0.69558636,-11.363976" id="guide3187"></sodipodi:guide>
</sodipodi:namedview>
<g id="g3365" transform="translate(-1.0555122,-1.4334958)" inkscape:label="Copie de bg" inkscape:groupmode="layer">
</g>
<g id="g3797" transform="matrix(1.0009638,0,0,1.0149543,-0.10161932,-7.4473543)">
	<path id="path3788" inkscape:connector-curvature="0" class="st0" d="M-177,344.7c-1.8,0-3.4,0.7-4.8,1.8c-0.8-0.7-1.9-1.2-3.1-1.2
		c-2.6,0-4.8,2.1-4.8,4.8c0,0.2,0,0.4,0,0.6c-0.7,0.1-1.3,0.4-2,0.6c-1.7-2.2-4.1-3.5-6.8-3.5c-4.9,0-8.9,4.4-9.4,10
		c-2.2,1.2-3.8,3.9-3.8,7c0,3.6,2.1,6.6,4.8,7.4c0.3,0.7,0.6,1.4,1,2c-4.9,0.9-9.9,2.9-14.4,6.1c-6.7,4.6-16.4,12.7-17.4,26
		c8.8,2.6,18.1,1,26-3.2c-1.3,10-0.7,19.4,2.7,26.2c15.6,31.7,54.2,23.6,63.8-1.2c2.5-6.4,2.5-17,0.5-28.1
		c9.2,3.3,19.6,3.5,28.5-1.1c-3.5-12.9-14.7-18.9-22.2-22.2c-2.3-1-4.7-1.8-7-2.3c0-0.6-0.1-1.1-0.3-1.6c2.3-1.5,3.8-4.3,3.8-7.7
		c0-2-0.6-3.8-1.6-5.3c0.5-0.7,0.8-1.6,0.8-2.6c0-2.6-2.1-4.8-4.8-4.8c-0.4,0-0.7,0-1,0.1c-1.2-3.2-4.3-5.5-7.9-5.5
		c-2.5,0-4.7,1.1-6.3,2.8c-1.3-0.9-2.9-1.4-4.5-1.4c-1.1,0-2.1,0.2-3,0.6C-171.6,346.5-174.1,344.7-177,344.7z"/>
	<path id="path3697" sodipodi:nodetypes="cscc" inkscape:connector-curvature="0" class="st1" d="M-116.2,399
		c-3.5-12.9-14.7-18.9-22.2-22.2c-10.4-4.5-21.7-4.1-29.7,0.4C-163.1,395.9-136.1,409.2-116.2,399z"/>
	<path id="path3695" sodipodi:nodetypes="cscc" inkscape:connector-curvature="0" class="st2" d="M-237.7,406.4
		c1-13.3,10.7-21.3,17.4-26c9.3-6.4,20.5-8.2,29.1-5.2C-192.4,394.4-216.3,412.5-237.7,406.4z"/>
	<path id="path3638" sodipodi:nodetypes="csss" inkscape:connector-curvature="0" class="st3" d="M-145.2,428.2
		c7.4-19-6.6-73.7-33.6-73.9c-23-0.1-41.3,52.6-30.2,75.1C-193.4,461-154.8,453-145.2,428.2z"/>
	<path id="path3643" inkscape:connector-curvature="0" class="st4" d="M-177,344.7c-1.8,0-3.4,0.7-4.8,1.9c-0.8-0.7-1.9-1.2-3.1-1.2
		c-2.6,0-4.8,2.1-4.8,4.8c0,0.2,0,0.4,0,0.6c-0.7,0.1-1.3,0.4-2,0.6c-1.7-2.2-4.1-3.5-6.8-3.5c-4.9,0-8.9,4.4-9.4,10
		c-2.2,1.2-3.8,3.9-3.8,7c0,3.6,2.1,6.6,4.9,7.4c1.2,3.5,4.1,6,7.5,6c1.2,0,2.4-0.3,3.4-0.9c2.2,2.3,5.1,3.7,8.3,3.7
		c5,0,9.3-3.4,11.5-8.3c1.6,1.5,3.6,2.4,5.8,2.4c1.8,0,3.4-0.6,4.8-1.6c1.2,3.6,4.1,6.3,7.6,6.3c1.7,0,3.3-0.6,4.6-1.7
		c0.8,0.7,1.9,1.2,3.1,1.2c2.6,0,4.8-2.1,4.8-4.8c0-0.6-0.1-1.1-0.3-1.6c2.3-1.5,3.8-4.3,3.8-7.6c0-2-0.6-3.9-1.6-5.3
		c0.5-0.7,0.8-1.6,0.8-2.6c0-2.6-2.1-4.8-4.8-4.8c-0.4,0-0.7,0.1-1.1,0.1c-1.2-3.2-4.3-5.5-7.9-5.5c-2.5,0-4.7,1.1-6.3,2.8
		c-1.3-0.9-2.9-1.4-4.5-1.4c-1.1,0-2.1,0.2-3,0.6C-171.6,346.5-174.1,344.7-177,344.7L-177,344.7z"/>
	<g id="g3518" transform="matrix(1.4381,0.64705,-0.64705,1.4381,-42.089,-43.474)">
		<path id="path3183" d="M29.4,290c2.2,0,4,1.8,4,4s-1.8,4-4,4s-4-1.8-4-4S27.2,290,29.4,290z"/>
		<path id="path3185" class="st5" d="M30.4,291.7c0.9,0,1.6,0.7,1.6,1.6c0,0.9-0.7,1.6-1.6,1.6c-0.9,0-1.6-0.7-1.6-1.6
			C28.8,292.4,29.6,291.7,30.4,291.7z"/>
		<path id="path3195" d="M44.4,283.2c2.2,0,4,1.8,4,4c0,2.2-1.8,4-4,4s-4-1.8-4-4C40.4,285,42.2,283.2,44.4,283.2z"/>
		<path id="path3197" class="st5" d="M45.4,285c0.9,0,1.6,0.7,1.6,1.6c0,0.9-0.7,1.6-1.6,1.6s-1.6-0.7-1.6-1.6
			C43.8,285.7,44.5,285,45.4,285z"/>
	</g>
	
		<g id="g3780" transform="matrix(0.7778,0.62851,-0.62851,0.7778,77.013,-10.361)" inkscape:transform-center-y="3.9241956" inkscape:transform-center-x="3.2997387">
		<path id="path3771" sodipodi:nodetypes="cscc" inkscape:connector-curvature="0" class="st6" d="M83.4,510.2
			c-1.7-2.5-3.8-3.2-6.2-3.9c-3.1-0.9-4.9,0.2-7,1.1C75,506.4,79.8,507.7,83.4,510.2z"/>
		<path id="path3775" inkscape:connector-curvature="0" d="M76.1,509.5c-0.4,1.2-2.1,1.7-3.8,1.2c-1.7-0.6-2.8-2-2.4-3.2
			c0.4-1.2,2.1-1.7,3.8-1.2C75.4,506.9,76.5,508.3,76.1,509.5z"/>
	</g>
	<g id="g3784" transform="matrix(0.79935,-0.60086,0.60086,0.79935,-45.783,68.703)">
		
			<path id="path3773" inkscape:transform-center-y="-3.1426362" inkscape:transform-center-x="-7.3416612" sodipodi:nodetypes="cscc" inkscape:connector-curvature="0" class="st7" d="
			M-323.9,220c1.6-2.8,3.8-3.7,6.3-4.7c3.2-1.2,5.2-0.2,7.5,0.6C-315.4,215.3-320.3,217.2-323.9,220z"/>
		
			<path id="path3778" inkscape:transform-center-y="1.2173202" inkscape:transform-center-x="-2.0288668" inkscape:connector-curvature="0" d="
			M-309.7,216c0.5,1.2-0.5,2.7-2.1,3.4c-1.7,0.7-3.4,0.3-3.9-0.9s0.5-2.7,2.1-3.4C-311.9,214.4-310.1,214.8-309.7,216z"/>
	</g>
</g>
<path id="path3371-0" inkscape:connector-curvature="0" class="st8" d="M-242.1,337.9"/>
<path id="path3373-2" inkscape:connector-curvature="0" class="st8" d="M-242.1,337.9"/>
<path id="path3381" inkscape:connector-curvature="0" class="st8" d="M-242.1,337.9"/>
<path id="path3383" inkscape:connector-curvature="0" class="st8" d="M-242.1,337.9"/>
</svg>
