<?xml version="1.0" encoding="UTF-8" standalone="no"?>
<!-- Created with Inkscape (http://www.inkscape.org/) -->

<svg
   xmlns:dc="http://purl.org/dc/elements/1.1/"
   xmlns:cc="http://creativecommons.org/ns#"
   xmlns:rdf="http://www.w3.org/1999/02/22-rdf-syntax-ns#"
   xmlns:svg="http://www.w3.org/2000/svg"
   xmlns="http://www.w3.org/2000/svg"
   xmlns:sodipodi="http://sodipodi.sourceforge.net/DTD/sodipodi-0.dtd"
   xmlns:inkscape="http://www.inkscape.org/namespaces/inkscape"
   id="svg2"
   sodipodi:docname="pitr-Sheep-icon.svg"
   inkscape:export-filename="C:\Users\SSI\Desktop\bitmap.png"
   viewBox="0 0 127.62682 114.64316"
   sodipodi:version="0.32"
   inkscape:export-xdpi="148.37344"
   version="1.0"
   inkscape:output_extension="org.inkscape.output.svg.inkscape"
   inkscape:export-ydpi="148.37344"
   inkscape:version="0.91 r13725"
   width="127.62682"
   height="114.64316">
  <defs
     id="defs26">
    <pattern
       y="0"
       x="0"
       height="6"
       width="6"
       patternUnits="userSpaceOnUse"
       id="EMFhbasepattern" />
  </defs>
  <sodipodi:namedview
     id="base"
     inkscape:zoom="4.2109376"
     borderopacity="1.0"
     inkscape:current-layer="layer2"
     inkscape:cx="29.853921"
     inkscape:cy="65.88075"
     showgrid="true"
     inkscape:guide-bbox="true"
     inkscape:snap-global="false"
     showguides="true"
     bordercolor="#666666"
     inkscape:window-x="1672"
     guidetolerance="10000"
     objecttolerance="10000"
     inkscape:window-y="-8"
     inkscape:window-width="1680"
     inkscape:pageopacity="0.0"
     inkscape:pageshadow="2"
     pagecolor="#ffffff"
     gridtolerance="10000"
     inkscape:document-units="px"
     inkscape:window-height="1028"
     showborder="true"
     inkscape:window-maximized="1"
     fit-margin-top="0"
     fit-margin-left="0"
     fit-margin-right="0"
     fit-margin-bottom="0">
    <inkscape:grid
       id="grid2403"
       visible="true"
       type="xygrid"
       enabled="true"
       empspacing="4"
       originx="-1.0555121"
       originy="-11.923345" />
    <sodipodi:guide
       id="guide3187"
       position="-0.69558636,-11.363976"
       orientation="1,0" />
  </sodipodi:namedview>
  <g
     inkscape:groupmode="layer"
     inkscape:label="Copie de bg"
     id="g3365"
     transform="translate(-1.0555122,-1.4334958)" />
  <g
     id="layer2"
     inkscape:label="bg"
     inkscape:groupmode="layer"
     transform="translate(-1.0555122,-1.4334958)">
    <g
       id="g3797"
       transform="matrix(1.0009638,0,0,1.0149543,-0.10161932,-7.4473543)">
      <path
         id="path3788"
         style="fill:#ffffff;fill-rule:evenodd;stroke:#000000;stroke-width:6;stroke-linejoin:round"
         d="m 64.812,11.75 c -1.784,0 -3.419,0.672 -4.75,1.844 -0.84,-0.738 -1.919,-1.188 -3.124,-1.188 -2.635,0 -4.782,2.147 -4.782,4.782 0,0.191 -0.022,0.376 0,0.562 -0.686,0.143 -1.346,0.358 -2,0.625 -1.716,-2.153 -4.125,-3.469 -6.812,-3.469 -4.862,0 -8.881,4.397 -9.375,10.032 -2.242,1.192 -3.781,3.857 -3.781,6.968 0,3.579 2.053,6.608 4.843,7.438 0.255,0.738 0.607,1.396 1,2.031 -4.926,0.91 -9.9,2.92 -14.437,6.063 -6.706,4.644 -16.444,12.666 -17.438,25.968 8.847,2.552 18.108,0.966 26.032,-3.156 -1.307,9.958 -0.666,19.431 2.656,26.188 15.561,31.652 54.171,23.592 63.812,-1.188 2.505,-6.437 2.535,-16.951 0.469,-28.062 9.185,3.281 19.575,3.467 28.535,-1.126 -3.54,-12.906 -14.69,-18.936 -22.19,-22.218 -2.32,-1.015 -4.667,-1.783 -7.032,-2.313 0,-0.564 -0.071,-1.091 -0.25,-1.593 2.288,-1.461 3.842,-4.345 3.842,-7.657 0,-2.011 -0.595,-3.838 -1.561,-5.312 0.483,-0.746 0.781,-1.64 0.781,-2.594 0,-2.635 -2.146,-4.781 -4.781,-4.781 -0.359,0 -0.695,0.049 -1.031,0.125 -1.206,-3.204 -4.28,-5.5 -7.907,-5.5 -2.491,0 -4.73,1.099 -6.281,2.812 -1.34,-0.878 -2.894,-1.406 -4.531,-1.406 -1.061,0 -2.08,0.239 -3.031,0.625 -1.444,-2.707 -3.99,-4.5 -6.876,-4.5 z"
         inkscape:connector-curvature="0" />
      <path
         id="path3697"
         sodipodi:nodetypes="cscc"
         style="fill:#ffffff;fill-rule:evenodd;stroke:#000000;stroke-width:2.88039994"
         d="M 125.66,66.049 C 122.12,53.142 110.98,47.118 103.48,43.835 93.103,39.291 81.743,39.7 73.813,44.275 78.75,62.957 105.77,76.248 125.66,66.049 Z"
         inkscape:connector-curvature="0" />
      <path
         id="path3695"
         sodipodi:nodetypes="cscc"
         style="fill:#ffffff;fill-rule:evenodd;stroke:#000000;stroke-width:2.87100005"
         d="m 4.1489,73.42 c 0.9941,-13.303 10.735,-21.326 17.441,-25.971 9.286,-6.431 20.476,-8.203 29.109,-5.244 -1.257,19.219 -25.149,37.389 -46.55,31.215 z"
         inkscape:connector-curvature="0" />
      <path
         id="path3638"
         sodipodi:nodetypes="csss"
         style="fill:#ffccaa;fill-rule:evenodd;stroke:#000000;stroke-width:2.6315999"
         d="M 96.647,95.251 C 104.05,76.226 90.08,21.51 63.068,21.389 40.065,21.285 21.798,73.961 32.853,96.445 48.414,128.09 87.005,120.03 96.647,95.251 Z"
         inkscape:connector-curvature="0" />
      <path
         id="path3643"
         style="fill:#ffffff;stroke:#000000;stroke-width:2.5229001;stroke-linecap:round;stroke-linejoin:round"
         d="m 64.81,11.738 c -1.785,0 -3.426,0.694 -4.757,1.865 -0.84,-0.737 -1.922,-1.182 -3.127,-1.182 -2.635,0 -4.783,2.122 -4.783,4.757 0,0.191 0.004,0.392 0.026,0.578 -0.686,0.143 -1.344,0.363 -1.997,0.631 -1.716,-2.153 -4.147,-3.469 -6.833,-3.469 -4.862,0 -8.862,4.378 -9.356,10.012 -2.242,1.193 -3.811,3.88 -3.811,6.991 0,3.579 2.072,6.581 4.862,7.411 1.217,3.519 4.127,6.019 7.516,6.019 1.216,0 2.381,-0.35 3.417,-0.92 2.242,2.293 5.144,3.679 8.331,3.679 4.99,0 9.331,-3.381 11.458,-8.331 1.603,1.505 3.611,2.392 5.808,2.392 1.763,0 3.396,-0.6 4.81,-1.603 1.164,3.65 4.123,6.254 7.595,6.254 1.694,0 3.269,-0.617 4.572,-1.682 0.841,0.738 1.922,1.183 3.128,1.183 2.635,0 4.783,-2.148 4.783,-4.783 0,-0.564 -0.083,-1.101 -0.263,-1.603 2.289,-1.461 3.841,-4.336 3.841,-7.648 0,-2.012 -0.588,-3.861 -1.554,-5.335 0.482,-0.746 0.762,-1.621 0.762,-2.575 0,-2.635 -2.122,-4.784 -4.757,-4.784 -0.359,0 -0.715,0.057 -1.051,0.132 -1.205,-3.203 -4.284,-5.493 -7.911,-5.493 -2.491,0 -4.73,1.072 -6.281,2.786 -1.34,-0.878 -2.883,-1.393 -4.52,-1.393 -1.061,0 -2.07,0.245 -3.022,0.631 -1.444,-2.707 -4,-4.52 -6.886,-4.52 z"
         inkscape:connector-curvature="0" />
      <g
         id="g3518"
         transform="matrix(1.4381,0.64705,-0.64705,1.4381,-42.089,-43.474)">
        <circle
           id="path3183"
           style="fill:#000000"
           transform="translate(10.649,-9.4991)"
           cx="72"
           cy="48"
           r="4" />
        <circle
           id="path3185"
           style="fill:#ffffff"
           transform="matrix(0.3961,0,0,0.3961,55.121,18.835)"
           cx="72"
           cy="48"
           r="4" />
        <circle
           id="path3195"
           style="fill:#000000"
           transform="translate(25.61,-16.267)"
           cx="72"
           cy="48"
           r="4" />
        <circle
           id="path3197"
           style="fill:#ffffff"
           transform="matrix(0.3961,0,0,0.3961,70.082,12.067)"
           cx="72"
           cy="48"
           r="4" />
      </g>
      <g
         id="g3780"
         inkscape:transform-center-x="3.2997387"
         inkscape:transform-center-y="3.9241956"
         transform="matrix(0.7778,0.62851,-0.62851,0.7778,77.013,-10.361)">
        <path
           id="path3771"
           sodipodi:nodetypes="cscc"
           style="fill:#000000;fill-rule:evenodd;stroke:#000000;stroke-width:0.93831998px;stroke-linecap:round;stroke-linejoin:round"
           d="m 62.183,99.205 c -1.685,-2.5 -3.845,-3.217 -6.223,-3.895 -3.065,-0.873 -4.906,0.167 -6.971,1.077 4.881,-0.958 9.661,0.378 13.194,2.818 z"
           inkscape:connector-curvature="0" />
        <path
           id="path3775"
           style="fill:#000000"
           d="m 54.896,98.553 c -0.398,1.209 -2.106,1.737 -3.813,1.173 -1.707,-0.562 -2.77,-2 -2.372,-3.209 0.398,-1.209 2.107,-1.734 3.814,-1.172 1.707,0.562 2.769,1.999 2.371,3.208 z"
           inkscape:connector-curvature="0" />
      </g>
      <g
         id="g3784"
         transform="matrix(0.79935,-0.60086,0.60086,0.79935,-45.783,68.703)">
        <path
           id="path3773"
           style="fill:#000000;fill-rule:evenodd;stroke:#000000;stroke-width:0.99880999px;stroke-linecap:round;stroke-linejoin:round"
           d="m 69.469,99.207 c 1.58,-2.794 3.812,-3.736 6.279,-4.654 3.178,-1.184 5.219,-0.234 7.487,0.559 -5.26,-0.608 -10.221,1.21 -13.766,4.095 z"
           sodipodi:nodetypes="cscc"
           inkscape:transform-center-y="-3.1426362"
           inkscape:transform-center-x="-7.3416612"
           inkscape:connector-curvature="0" />
        <path
           id="path3778"
           inkscape:transform-center-x="-2.0288668"
           style="fill:#000000"
           inkscape:transform-center-y="1.2173202"
           d="m 83.691,95.114 c 0.48,1.175 -0.476,2.678 -2.135,3.356 -1.659,0.677 -3.395,0.274 -3.875,-0.901 -0.48,-1.175 0.477,-2.679 2.136,-3.357 1.659,-0.677 3.394,-0.273 3.874,0.902 z"
           inkscape:connector-curvature="0" />
      </g>
    </g>
    <g
       transform="matrix(0.04919248,0,0,0.04717292,77.728989,69.370747)"
       id="g3387">
      <path
         d="M 946.9,829.6 770.1,506.5 C 803.7,455.9 823.4,395.4 823.4,330 823.4,153.8 680.1,10 503.8,10 c -176.4,0 -320,143.8 -320,319.9 0,62.7 18.3,121.4 49.2,170.7 l -179.5,329 c -4.9,8.1 -4,18.4 1.8,26 5.8,7.2 15.7,10.8 24.6,8.1 l 146.4,-38.1 54.2,148.8 c 3.1,8.5 11.2,14.8 20.6,15.2 0.4,0.5 0.9,0.5 1.8,0.5 8.5,0 16.6,-4.9 20.6,-12.5 L 500.3,654.5 677,977.5 c 4,7.6 12.1,12.5 20.6,12.5 0.5,0 1.3,0 1.8,-0.5 9.4,-0.4 17.5,-6.7 20.6,-15.2 l 54.2,-148.8 145.9,38.1 c 9.4,2.7 18.8,-0.9 24.6,-8.1 5.8,-7.6 6.7,-17.9 2.2,-25.9 M 503.8,57.5 C 653.8,57.5 776,179.8 776,329.9 776,480.5 653.8,602.8 503.8,602.8 353.4,602.8 231.2,480.5 231.2,329.9 231.2,179.8 353.4,57.5 503.8,57.5 m -197,851.4 -43.4,-119.7 c -4,-11.6 -16.6,-17.9 -28.2,-14.8 L 121.1,804 264.3,542.3 c 47.5,53.8 112.8,91 186.7,103.5 L 306.8,908.9 Z M 765.2,774.5 C 753.1,771.4 741,777.6 737,789.3 L 693.1,909 549.9,646.7 c 74.3,-10.8 140.1,-47 188.4,-99.5 L 878.9,804 765.2,774.5 Z"
         id="path8"
         inkscape:connector-curvature="0" />
      <path
         inkscape:connector-curvature="0"
         id="path3351"
         d="M 445.46973,594.59987 C 317.45294,565.48436 226.8238,445.33892 234.43167,314.83051 c 3.95556,-67.85529 29.74209,-125.44377 77.88646,-173.94209 32.18726,-32.4239 64.79578,-52.700867 109.33271,-67.986393 28.65549,-9.834857 41.01917,-11.649118 80.4678,-11.807948 78.79562,-0.31725 133.71191,22.644243 190.87661,79.808961 55.50089,55.50089 79.37013,112.18409 79.48577,188.75798 0.0716,47.47702 -7.84085,81.34499 -28.4286,121.68296 -33.3625,65.3678 -89.35475,113.42725 -159.30666,136.73661 -35.9254,11.97106 -101.75666,15.0525 -139.27603,6.51928 z"
         style="fill:#ffffff" />
      <path
         inkscape:connector-curvature="0"
         id="path3353"
         d="m 444.91525,594.25835 c -90.48446,-19.43377 -171.30726,-94.55221 -200.34781,-186.2075 -7.6094,-24.01616 -9.35915,-39.33793 -9.19407,-80.50848 0.17599,-43.89449 1.72837,-55.09723 11.3526,-81.92629 15.12272,-42.15695 34.40031,-73.18831 64.71471,-104.17198 31.10154,-31.78819 65.55654,-53.216497 110.21016,-68.542073 28.65549,-9.834857 41.01917,-11.649118 80.4678,-11.807948 33.14139,-0.133435 53.95679,2.019669 72.0339,7.451046 C 708.22331,108.82747 792.77394,240.34496 769.86729,372.97703 743.25331,527.07492 596.71664,626.8614 444.91525,594.25835 Z"
         style="fill:#c87137" />
      <path
         inkscape:connector-curvature="0"
         id="path3361"
         d="M 465.62911,603.70122 C 402.92019,595.23778 345.71994,565.4874 301.23372,518.19764 261.37318,475.8251 233.03009,418.94914 228.23039,371.70223 c -1.48146,-14.58311 -1.46136,-68.67181 0.0314,-84.5205 2.06135,-21.88522 10.24874,-47.5459 24.39241,-76.44983 26.12686,-53.39284 72.31802,-99.99726 125.36816,-126.489836 20.83604,-10.405262 51.18882,-21.309523 69.5725,-24.993982 25.26292,-5.063193 80.86798,-5.051224 109.97965,0.02368 16.2731,2.836814 40.5529,11.446343 62.06772,22.008988 30.2776,14.864718 53.00647,30.913 76.10441,53.73541 45.12339,44.58512 72.79916,99.60547 81.39111,161.80826 1.81107,13.11155 1.84994,51.70542 0.0649,64.43404 -9.04643,64.50728 -35.98556,119.41123 -80.24798,163.55131 -43.77948,43.65847 -99.54645,70.83977 -162.03075,78.97517 -16.15488,2.10334 -53.42369,2.05833 -69.29479,-0.0837 l -10e-6,10e-6 z"
         style="fill:#ffcc00" />
      <path
         inkscape:connector-curvature="0"
         id="path3365"
         d="m 284.80966,846.63462 c -13.61811,-37.64512 -22.82597,-61.57302 -24.69238,-64.16651 -3.52806,-4.90247 -12.03984,-9.25087 -18.13778,-9.26602 -2.2907,-0.005 -29.8894,6.67326 -61.33043,14.84213 -31.44104,8.16887 -57.33547,14.68254 -57.54318,14.47483 -0.20771,-0.20771 31.44288,-58.56391 70.33466,-129.68042 l 70.71233,-129.30277 14.8305,14.52996 c 44.88938,43.97967 97.25814,72.31342 157.80438,85.37893 6.97249,1.50462 12.78405,2.84248 12.91459,2.97301 0.37284,0.37284 -142.05372,260.19243 -142.64693,260.22161 -0.29131,0.0143 -10.30191,-26.98781 -22.24576,-60.00475 z"
         style="fill:#00ffff" />
      <path
         inkscape:connector-curvature="0"
         id="path3367"
         d="m 620.7731,781.67482 c -40.85969,-75.10171 -74.22776,-136.63673 -74.15125,-136.74447 0.0764,-0.10775 6.61652,-1.50571 14.53334,-3.10655 65.24268,-13.19267 121.02588,-42.50482 168.15289,-88.35855 7.16966,-6.97596 13.19153,-12.48227 13.38192,-12.23625 1.72081,2.22358 144.89803,265.9953 144.56543,266.32922 -0.24265,0.24358 -27.34412,-6.54552 -60.22551,-15.08693 -32.88138,-8.54139 -61.28084,-15.52701 -63.10988,-15.52359 -6.84838,0.0127 -12.11772,2.36492 -17.17623,7.66719 -4.60459,4.82646 -5.78557,7.43611 -15.429,34.09415 -5.74352,15.8772 -16.24969,44.76314 -23.34705,64.19098 L 695.06345,918.2234 620.7731,781.67482 Z"
         style="fill:#5599ff" />
      <path
         inkscape:connector-curvature="0"
         id="path3369-7"
         d="m 305.75268,911.6195 c -1.22541,-4.2023 -36.51657,-99.43989 -41.23484,-111.2774 -2.77074,-6.9514 -6.29955,-13.97899 -7.8418,-15.61689 -3.85994,-4.09931 -11.48365,-7.46285 -16.91507,-7.46285 -2.49288,0 -31.02617,6.67664 -63.4073,14.83698 -32.38111,8.16034 -59.16822,14.83699 -59.52687,14.83699 -0.35866,0 1.05586,-3.09104 3.14338,-6.86899 2.08752,-3.77793 19.32199,-35.30651 38.29882,-70.06354 33.5457,-61.44059 103.69857,-189.40028 104.03714,-189.76501 0.0925,-0.0997 7.36757,6.54771 16.16667,14.7721 20.09453,18.78208 34.01234,29.88012 52.96003,42.23021 32.90001,21.4442 69.91658,36.65142 111.98842,46.00723 6.06835,1.34946 11.17533,2.56335 11.3489,2.69754 0.56656,0.43807 -64.66177,119.44558 -142.90571,260.72797 -3.97578,7.17892 -5.17708,8.15101 -6.11177,4.94566 z"
         style="fill:#5599ff" />
    </g>
    <path
       style="fill:#5599ff"
       d=""
       id="path3371-0"
       inkscape:connector-curvature="0" />
    <path
       style="fill:#5599ff"
       d=""
       id="path3373-2"
       inkscape:connector-curvature="0" />
    <path
       style="fill:#5599ff"
       d=""
       id="path3381"
       inkscape:connector-curvature="0" />
    <path
       style="fill:#5599ff"
       d=""
       id="path3383"
       inkscape:connector-curvature="0" />
  </g>
  <metadata
     id="metadata24">
    <rdf:RDF>
      <cc:Work>
        <dc:format>image/svg+xml</dc:format>
        <dc:type
           rdf:resource="http://purl.org/dc/dcmitype/StillImage" />
        <cc:license
           rdf:resource="http://creativecommons.org/publicdomain/zero/1.0/" />
        <dc:publisher>
          <cc:Agent
             rdf:about="http://openclipart.org/">
            <dc:title>Openclipart</dc:title>
          </cc:Agent>
        </dc:publisher>
        <dc:title>Sheep icon</dc:title>
        <dc:date>2009-04-02T20:11:52</dc:date>
        <dc:description />
        <dc:source>https://openclipart.org/detail/23819/sheep-icon-by-pitr-23819</dc:source>
        <dc:creator>
          <cc:Agent>
            <dc:title>pitr</dc:title>
          </cc:Agent>
        </dc:creator>
        <dc:subject>
          <rdf:Bag>
            <rdf:li>animal</rdf:li>
            <rdf:li>contour</rdf:li>
            <rdf:li>farm</rdf:li>
            <rdf:li>icon</rdf:li>
            <rdf:li>lamb</rdf:li>
            <rdf:li>pink</rdf:li>
            <rdf:li>sheep</rdf:li>
            <rdf:li>white</rdf:li>
          </rdf:Bag>
        </dc:subject>
      </cc:Work>
      <cc:License
         rdf:about="http://creativecommons.org/publicdomain/zero/1.0/">
        <cc:permits
           rdf:resource="http://creativecommons.org/ns#Reproduction" />
        <cc:permits
           rdf:resource="http://creativecommons.org/ns#Distribution" />
        <cc:permits
           rdf:resource="http://creativecommons.org/ns#DerivativeWorks" />
      </cc:License>
    </rdf:RDF>
  </metadata>
</svg>
